IKResults
version=1
nRows=16
nColumns=44
inDegrees=yes

Units are S.I. units (second, meters, Newtons, ...)
Angles are in degrees.

endheader
time	ground_spine_rot_x	ground_spine_rot_y	ground_spine_rot_z	ground_spine_tx	ground_spine_ty	ground_spine_tz	clav_prot	clav_elev	scapula_abduction	scapula_elevation	scapula_upward_rot	scapula_winging	plane_elv	shoulder_elv	axial_rot	elbow_flexion	pro_sup	clav_prot_l	clav_elev_l	pitch2	roll2	yaw2	aux7jnt_r3	aux7jnt_r1	aux7jnt_r2	aux6jnt_r3	aux6jnt_r1	aux6jnt_r2	aux5jnt_r3	aux5jnt_r1	aux5jnt_r2	aux4jnt_r3	aux4jnt_r1	aux4jnt_r2	aux3jnt_r3	aux3jnt_r1	aux3jnt_r2	pitch1	roll1	yaw1	aux1jnt_r3	aux1jnt_r1	aux1jnt_r2
      0.00000000	      0.96079140	     -0.45747293	     -2.77690757	     -0.84495662	      1.08901137	      0.91233171	    -24.24643481	     -1.53792132	      5.28768391	    -16.29280523	     11.99826665	     18.68738738	    -66.62913155	     36.64741189	     49.30818924	      0.00000000	     34.32000000	     30.42326055	     -1.16071730	      0.09596588	     -0.03305829	     -0.00924911	      1.02820918	     -0.25949151	     -0.09962781	      1.20965489	     -0.29737395	     -0.11605573	      1.20965489	     -0.40912535	     -0.11605573	      0.90724117	     -0.40912535	     -0.11605573	      0.60482744	     -0.37124400	     -0.04981390	     -0.23287546	      0.02398492	     -0.03280258	     -7.41858250	      0.68711741	     -0.20861925
      0.01000000	      0.95676932	     -0.45534608	     -2.78323240	     -0.84499587	      1.08901582	      0.91238974	    -24.28262092	     -1.53859784	      5.22813147	    -16.29733726	     11.99890934	     18.71612433	    -66.78682377	     36.56828122	     52.40073406	      0.00000000	     34.32000000	     30.42326055	     -1.16071730	      0.09512366	     -0.03290664	     -0.00683956	      1.01918536	     -0.25830119	     -0.07367303	      1.19903867	     -0.29600986	     -0.08582119	      1.19903867	     -0.40724864	     -0.08582119	      0.89927900	     -0.40724864	     -0.08582119	      0.59951933	     -0.36954106	     -0.03683651	     -0.23237011	      0.02392236	     -0.03551620	     -7.40248407	      0.68532502	     -0.22587746
      0.02000000	      0.95716385	     -0.46300559	     -2.77855599	     -0.84491148	      1.08902332	      0.91240899	    -24.25780961	     -1.54210951	      5.27031275	    -16.29791463	     11.99825441	     18.69746079	    -66.83807497	     36.59470047	     50.37882121	      0.00000000	     34.32000000	     30.42326055	     -1.16071730	      0.09513854	     -0.03284568	     -0.00624195	      1.01934481	     -0.25782262	     -0.06723581	      1.19922624	     -0.29546142	     -0.07832252	      1.19922624	     -0.40649411	     -0.07832252	      0.89941968	     -0.40649411	     -0.07832252	      0.59961312	     -0.36885638	     -0.03361791	     -0.23241416	      0.02388199	     -0.03582254	     -7.40388721	      0.68416858	     -0.22782575
      0.03000000	      0.94936901	     -0.50824478	     -2.77241256	     -0.84477295	      1.08914497	      0.91254863	    -24.34133000	     -1.53581726	      5.12804341	    -16.30021093	     11.99790744	     18.76231699	    -67.05981651	     36.48932653	     50.38545501	      0.00000000	     34.32000000	     30.42326055	     -1.16071730	      0.08633495	     -0.02928265	     -0.00992899	      0.92502026	     -0.22985461	     -0.10695111	      1.08825646	     -0.26341044	     -0.12458660	      1.08825646	     -0.36239856	     -0.12458660	      0.81619235	     -0.36239856	     -0.12458660	      0.54412823	     -0.32884369	     -0.05347556	     -0.22497894	      0.02073630	     -0.03774643	     -7.16702767	      0.59405129	     -0.24006142
      0.04000000	      0.96275831	     -0.48313068	     -2.78787480	     -0.84482377	      1.08913877	      0.91244028	    -24.41286771	     -1.51335131	      4.99961419	    -16.28649621	     11.99803874	     18.81341197	    -66.50865686	     36.46901433	     49.98061189	      0.00000000	     34.32000000	     30.42326055	     -1.16071730	      0.08691392	     -0.02845232	     -0.01062806	      0.93122361	     -0.22333688	     -0.11448127	      1.09555451	     -0.25594121	     -0.13335842	      1.09555451	     -0.35212243	     -0.13335842	      0.82166588	     -0.35212243	     -0.13335842	      0.54777725	     -0.31951904	     -0.05724063	     -0.22544978	      0.01887560	     -0.03800564	     -7.18202686	      0.54074601	     -0.24170992
      0.05000000	      0.94482933	     -0.51868343	     -2.70923739	     -0.84427039	      1.08948146	      0.91262114	    -24.38284565	     -1.50214513	      5.04582326	    -16.27296798	     11.99836599	     18.78679460	    -66.85000814	     36.49741947	     53.13448883	      0.00000000	     34.32000000	     30.42326055	     -1.16071730	      0.08181435	     -0.03381824	     -0.01027433	      0.87658518	     -0.26545674	     -0.11067106	      1.03127415	     -0.30421003	     -0.12891994	      1.03127415	     -0.41853039	     -0.12891994	      0.77345562	     -0.41853039	     -0.12891994	      0.51563708	     -0.37977821	     -0.05533553	     -0.22196961	      0.02413152	     -0.03819150	     -7.07116111	      0.69131702	     -0.24289198
      0.06000000	      0.98857116	     -0.46136089	     -2.76898040	     -0.84459044	      1.08930506	      0.91231240	    -24.59237667	     -1.40632986	      4.65690681	    -16.20376056	     11.99868321	     18.92873793	    -66.37761081	     36.22798733	     50.89798657	      0.00000000	     34.32000000	     30.42326055	     -1.16071730	      0.08282058	     -0.03318522	     -0.01323329	      0.88736626	     -0.26048792	     -0.14254382	      1.04395775	     -0.29851582	     -0.16604829	      1.04395775	     -0.41069633	     -0.16604829	      0.78296831	     -0.41069633	     -0.16604829	      0.52197887	     -0.37266952	     -0.07127191	     -0.22243385	      0.02514042	     -0.03918614	     -7.08595012	      0.72021986	     -0.24921770
      0.07000000	      0.94812027	     -0.50870028	     -2.76473219	     -0.84453657	      1.08934806	      0.91259579	    -24.40555846	     -1.51470078	      5.01333158	    -16.28734297	     11.99906869	     18.80766711	    -66.84498439	     36.62324843	     52.37911873	      0.00000000	     34.32000000	     30.42326055	     -1.16071730	      0.08219338	     -0.02928317	     -0.01201661	      0.88064625	     -0.22985865	     -0.12943816	      1.03605187	     -0.26341507	     -0.15078160	      1.03605187	     -0.36240492	     -0.15078160	      0.77703890	     -0.36240492	     -0.15078160	      0.51802594	     -0.32884946	     -0.06471908	     -0.22204716	      0.02111706	     -0.04067008	     -7.07363153	      0.60495910	     -0.25865535
      0.08000000	      1.01476378	     -0.38361895	     -2.78569482	     -0.84457350	      1.08931135	      0.91209544	    -24.82494598	     -1.40408530	      4.26223506	    -16.22451545	     11.99725367	     19.11128828	    -65.92836851	     36.31863157	     49.37683571	      0.00000000	     34.32000000	     30.42326055	     -1.16071730	      0.08398510	     -0.03238899	     -0.01382945	      0.89984325	     -0.25423788	     -0.14896537	      1.05863652	     -0.29135335	     -0.17352870	      1.05863652	     -0.40084225	     -0.17352870	      0.79397739	     -0.40084225	     -0.17352870	      0.52931826	     -0.36372784	     -0.07448268	     -0.22365705	      0.02259539	     -0.04140091	     -7.12491683	      0.64731018	     -0.26330330
      0.09000000	      0.95866109	     -0.49575917	     -2.77053294	     -0.84448488	      1.08933363	      0.91255928	    -24.47081541	     -1.45531083	      4.87981837	    -16.23757750	     11.99807956	     18.84497414	    -66.74136342	     36.35985287	     49.85460851	      0.00000000	     34.32000000	     30.42326055	     -1.16071730	      0.08233936	     -0.02949560	     -0.01369534	      0.88221025	     -0.23152616	     -0.14752082	      1.03789186	     -0.26532601	     -0.17184596	      1.03789186	     -0.36503399	     -0.17184596	      0.77841890	     -0.36503399	     -0.17184596	      0.51894593	     -0.33123511	     -0.07376041	     -0.22244449	      0.02093303	     -0.03974697	     -7.08628912	      0.59968721	     -0.25278451
      0.10000000	      0.96644782	     -0.51745380	     -2.76289663	     -0.84453793	      1.08931358	      0.91253356	    -24.35338659	     -1.45059181	      5.07465280	    -16.22115140	     11.99776757	     18.75102437	    -66.83888173	     36.46161433	     51.74961441	      0.00000000	     34.32000000	     30.42326055	     -1.16071730	      0.09043470	     -0.03277970	     -0.00982562	      0.96894629	     -0.25730472	     -0.10583767	      1.13993402	     -0.29486791	     -0.12328955	      1.13993402	     -0.40567756	     -0.12328955	      0.85495051	     -0.40567756	     -0.12328955	      0.56996701	     -0.36811544	     -0.05291883	     -0.23073066	      0.01999708	     -0.03642617	     -7.35025694	      0.57287420	     -0.23166476
      0.11000000	      0.95944021	     -0.51851168	     -2.76617280	     -0.84449147	      1.08931496	      0.91260433	    -24.34870191	     -1.46350834	      5.08799003	    -16.23304427	     11.99836616	     18.75022746	    -66.91098123	     36.50319355	     51.74095391	      0.00000000	     34.32000000	     30.42326055	     -1.16071730	      0.09074097	     -0.03293100	     -0.01019952	      0.97222785	     -0.25849238	     -0.10986519	      1.14379467	     -0.29622895	     -0.12798118	      1.14379467	     -0.40755008	     -0.12798118	      0.85784600	     -0.40755008	     -0.12798118	      0.57189733	     -0.36981458	     -0.05493259	     -0.23107522	      0.02055475	     -0.03547855	     -7.36123340	      0.58885016	     -0.22563805
      0.12000000	      0.97661234	     -0.52621092	     -2.76544283	     -0.84445707	      1.08931399	      0.91252133	    -24.37869895	     -1.41582092	      5.01916645	    -16.19106689	     11.99836041	     18.76236879	    -66.77955164	     36.39863801	     53.25739280	      0.00000000	     34.32000000	     30.42326055	     -1.16071730	      0.08973582	     -0.03195187	     -0.01038219	      0.96145833	     -0.25080671	     -0.11183286	      1.13112467	     -0.28742129	     -0.13027331	      1.13112467	     -0.39543254	     -0.13027331	      0.84834351	     -0.39543254	     -0.13027331	      0.56556234	     -0.35881902	     -0.05591643	     -0.23139576	      0.01845343	     -0.03751865	     -7.37144463	      0.52865175	     -0.23861275
      0.13000000	      0.95856617	     -0.52662931	     -2.76915441	     -0.84445817	      1.08931000	      0.91267652	    -24.37001715	     -1.44095592	      5.04331743	    -16.21385748	     11.99819804	     18.76167073	    -66.86513943	     36.44403718	     52.53314254	      0.00000000	     34.32000000	     30.42326055	     -1.16071730	      0.08966098	     -0.03149088	     -0.01074131	      0.96065644	     -0.24718810	     -0.11570113	      1.13018128	     -0.28327439	     -0.13477942	      1.13018128	     -0.38972727	     -0.13477942	      0.84763596	     -0.38972727	     -0.13477942	      0.56509064	     -0.35364200	     -0.05785056	     -0.23132637	      0.01852044	     -0.03699687	     -7.36923413	      0.53057141	     -0.23529429
      0.14000000	      0.98011831	     -0.53457302	     -2.77160025	     -0.84438961	      1.08931584	      0.91255228	    -24.37613862	     -1.43052248	      5.02863247	    -16.20450716	     11.99781206	     18.76405995	    -66.80703665	     36.42915939	     51.50678559	      0.00000000	     34.32000000	     30.42326055	     -1.16071730	      0.09009594	     -0.03228142	     -0.01193794	      0.96531677	     -0.25339349	     -0.12859083	      1.13566401	     -0.29038570	     -0.14979455	      1.13566401	     -0.39951096	     -0.14979455	      0.85174801	     -0.39951096	     -0.14979455	      0.56783200	     -0.36251981	     -0.06429541	     -0.23176196	      0.01907047	     -0.03606857	     -7.38311039	      0.54632870	     -0.22939044
      0.15000000	      0.99396622	     -0.50708180	     -2.77578398	     -0.84435554	      1.08930889	      0.91248677	    -24.45700752	     -1.38620271	      4.87584998	    -16.17087315	     11.99788663	     18.81721511	    -66.70217328	     36.39380781	     50.42323767	      0.00000000	     34.32000000	     30.42326055	     -1.16071730	      0.09124875	     -0.03468779	     -0.01260702	      0.97766835	     -0.27228232	     -0.13579781	      1.15019524	     -0.31203206	     -0.15818991	      1.15019524	     -0.42929190	     -0.15818991	      0.86264643	     -0.42929190	     -0.15818991	      0.57509762	     -0.38954330	     -0.06789891	     -0.23282108	      0.02091482	     -0.03498232	     -7.41685035	      0.59916536	     -0.22248210
